<?xml version="1.0" encoding="utf-8"?>
<!-- Generator: Adobe Illustrator 23.0.1, SVG Export Plug-In . SVG Version: 6.00 Build 0)  -->
<svg version="1.1" id="图层_1" xmlns="http://www.w3.org/2000/svg" xmlns:xlink="http://www.w3.org/1999/xlink" x="0px" y="0px"
	 viewBox="0 0 200 200" style="enable-background:new 0 0 200 200;" xml:space="preserve">
<style type="text/css">
	.st0{fill:#333E5F;}
</style>
<path class="st0" d="M185.9,68.8c-0.1-0.4-0.2-0.9-0.4-1.3l-14.7-36.7c-2.6-7.7-10-12.6-19-12.6H48.6c-8.8,0-15.8,4.7-18.4,12.3
	L14.4,67.8v0c-0.1,0.3-0.2,0.6-0.2,0.9c-2.6,7.8-2.3,16.3,0.8,24c3.1,7.7,8.8,14,16.1,17.9c4.7,2.5,10.3,3.8,16.5,3.8
	c10.1,0,19.7-4.4,26.3-12c6.6,7.6,16.1,11.9,26.2,11.9c10-0.1,19.5-4.4,26.1-12c6.6,7.6,16.2,11.9,26.3,11.9h0.1
	c6.4,0,12-1.4,16.8-4C184.1,102.3,191,84.8,185.9,68.8L185.9,68.8z M133.6,89.1c-1.2-1.3-3.2-2.8-6.7-2.8c-2.7,0-5.2,1.1-6.7,2.9
	c-0.7,0.8-1.3,1.8-1.8,2.8c-4,6.5-10.9,10.4-18.5,10.5c-7.6,0-14.7-4.1-18.7-10.5c-0.3-0.6-0.8-1.7-1.6-2.5
	c-1.5-1.8-4.1-2.9-6.9-2.9c-2.7,0-5.1,1-6.5,2.6c-1.1,1.2-1.6,2.4-1.9,3c-4,6.5-11.1,10.4-18.7,10.4c-4.1,0-7.6-0.8-10.4-2.3
	c-9.7-5.1-14.1-16.4-10.5-26.7c0.1-0.2,0.1-0.4,0.2-0.6L41,35v0c0.3-1,1.2-3.5,5.8-3.5h106.7c2.5,0.2,5.3,0.7,6.3,3.8v0l15.1,37.5
	c0.1,0.3,0.1,0.5,0.2,0.7v0c3.5,10.2-0.8,21.4-10.3,26.6c-2.8,1.6-6.4,2.4-10.6,2.4h-0.1c-7.6,0-14.7-4-18.7-10.5
	C134.9,90.9,134.3,90,133.6,89.1L133.6,89.1z M168,122.6c-3.6,0-6.4,2.9-6.4,6.9l0,36.3c0,1.6-1.3,2.9-2.9,2.9l-119.5,0.1
	c-1.6,0-2.9-1.3-2.9-2.9l0-36.5c0-3.9-2.8-6.9-6.4-6.9c-1.6,0-3.1,0.6-4.2,1.7c-1.3,1.2-2,3.1-1.9,5.2l0,35.7
	c0,4.5,1.6,8.6,4.6,11.7c3,3.1,7.1,4.9,11.5,4.9l118-0.1c9.1,0,16.2-7.3,16.2-16.7l0-35.6C174.1,125.4,171.6,122.6,168,122.6
	L168,122.6z"/>
<path class="st0" d="M68.3,162.4c-3.4,0-6.2-2.8-6.2-6.2v-27.4c0-3.4,2.8-6.2,6.2-6.2s6.2,2.8,6.2,6.2v27.4
	C74.5,159.6,71.7,162.4,68.3,162.4z"/>
</svg>
